<?xml version="1.0" encoding="iso-8859-1"?>
<!-- Generator: Adobe Illustrator 19.0.0, SVG Export Plug-In . SVG Version: 6.00 Build 0)  -->
<svg version="1.1" id="Layer_1" xmlns="http://www.w3.org/2000/svg" xmlns:xlink="http://www.w3.org/1999/xlink" x="0px" y="0px"
	 viewBox="0 0 512 512" style="enable-background:new 0 0 512 512;" xml:space="preserve">
<g>
	<g>
		<path d="M432.04,24.056c-32.077-32.075-84.266-32.074-116.341,0l-53.962,53.962l-7.35-7.35c-7.997-7.999-20.966-7.999-28.965,0
			s-7.999,20.966,0,28.965l7.353,7.353L103.366,236.387c-3.672,3.67-5.811,8.595-5.989,13.783l-2.824,82.409L75.52,351.613
			c-7.999,7.999-7.999,20.966,0,28.965c7.997,7.999,20.966,8,28.965,0l19.034-19.034l82.409-2.824
			c5.186-0.177,10.112-2.317,13.781-5.987c4.436-4.438,121.081-121.092,129.401-129.411l7.353,7.353c7.997,7.999,20.966,8,28.965,0
			c7.999-7.999,7.999-20.966,0-28.965l-7.35-7.35l53.962-53.962C464.114,108.323,464.114,56.133,432.04,24.056z M318.786,195.713
			H201.98l59.76-59.76l58.402,58.404L318.786,195.713z"/>
	</g>
</g>
<g>
	<g>
		<path d="M95.365,427.347c-2.79-3.366-7.937-3.366-10.727,0c-9.602,11.588-28.734,36.449-28.734,50.555
			c0,18.832,15.266,34.098,34.098,34.098c18.832,0,34.098-15.266,34.098-34.098C124.099,463.796,104.965,438.934,95.365,427.347z"/>
	</g>
</g>
<g>
</g>
<g>
</g>
<g>
</g>
<g>
</g>
<g>
</g>
<g>
</g>
<g>
</g>
<g>
</g>
<g>
</g>
<g>
</g>
<g>
</g>
<g>
</g>
<g>
</g>
<g>
</g>
<g>
</g>
</svg>
