<?xml version="1.0" encoding="UTF-8"?>
<svg xmlns="http://www.w3.org/2000/svg" xmlns:xlink="http://www.w3.org/1999/xlink" width="50px" height="50px" viewBox="0 0 50 50" version="1.1">
<g id="surface1">
<path style=" stroke:none;fill-rule:nonzero;fill:rgb(0%,0%,0%);fill-opacity:1;" d="M 42.191406 2.347656 C 39.058594 -0.78125 33.960938 -0.78125 30.828125 2.347656 L 25.558594 7.617188 L 24.84375 6.902344 C 24.0625 6.121094 22.796875 6.121094 22.015625 6.902344 C 21.234375 7.683594 21.234375 8.949219 22.015625 9.730469 L 22.730469 10.449219 L 10.09375 23.085938 C 9.734375 23.441406 9.527344 23.925781 9.507812 24.429688 L 9.234375 32.476562 L 7.375 34.335938 C 6.59375 35.117188 6.59375 36.382812 7.375 37.164062 C 8.15625 37.945312 9.421875 37.945312 10.203125 37.164062 L 12.0625 35.308594 L 20.109375 35.03125 C 20.617188 35.015625 21.097656 34.804688 21.457031 34.445312 C 21.890625 34.011719 33.28125 22.621094 34.09375 21.808594 L 34.8125 22.527344 C 35.59375 23.308594 36.859375 23.308594 37.640625 22.527344 C 38.421875 21.746094 38.421875 20.480469 37.640625 19.699219 L 36.921875 18.980469 L 42.191406 13.710938 C 45.324219 10.578125 45.324219 5.480469 42.191406 2.347656 Z M 31.132812 19.113281 L 19.726562 19.113281 L 25.5625 13.277344 L 31.265625 18.980469 Z M 31.132812 19.113281 "/>
<path style=" stroke:none;fill-rule:nonzero;fill:rgb(0%,0%,0%);fill-opacity:1;" d="M 9.3125 41.734375 C 9.039062 41.40625 8.539062 41.40625 8.265625 41.734375 C 7.328125 42.863281 5.460938 45.292969 5.460938 46.671875 C 5.460938 48.507812 6.949219 50 8.789062 50 C 10.628906 50 12.117188 48.507812 12.117188 46.671875 C 12.117188 45.292969 10.25 42.863281 9.3125 41.734375 Z M 9.3125 41.734375 "/>
</g>
</svg>
